<svg xmlns="http://www.w3.org/2000/svg" xmlns:xlink="http://www.w3.org/1999/xlink" viewBox="0 0 72.7 129.83"><defs><style>.cls-1{fill:none;}.cls-2{isolation:isolate;}.cls-3{opacity:0.85;mix-blend-mode:hard-light;}.cls-4{clip-path:url(#clip-path);}.cls-5{fill:#fff;}.cls-6{fill:url(#radial-gradient);}</style><clipPath id="clip-path"><path class="cls-1" d="M-45.62,170a24.79,24.79,0,0,0-2.25-3.73c-.21-.29-.44-.57-.65-.85s-.51-.62-.7-.83c-.45-.53-.94-1-1.41-1.5a36.24,36.24,0,0,0-6.16-4.95c-2.12-1.39-4.23-2.52-6.1-3.6-.93-.55-1.82-1.08-2.61-1.62-.41-.26-.76-.55-1.14-.82l-.45-.37a4.24,4.24,0,0,1-.5-.44l-.56-.53c-.07-.06-.09-.14-.15-.19s-.11-.21-.16-.3l-.17-.42a8.54,8.54,0,0,1-.33-2.19c-.08-1.6.09-3.25.1-4.79,0-.44,0-.85,0-1.27h.26s16.56-17.4,18.38-22.73,4.35-16.42,0-25S-57,86-56.41,83.38s2-11.57.6-15.34c-1-2.51-4.53-8.51-5.37-11.74s-2.1-8.7-.84-8,6.17,2.53,6.17,2.53A2.41,2.41,0,0,0-55,47.32c-1.4-2.25-6.59-6.32-6.59-7a8.31,8.31,0,0,0,.53-3.51,56.51,56.51,0,0,0-2.52-9.48,10,10,0,0,1-.76-3.09V19.73a7.7,7.7,0,0,0-.05-.83,64.82,64.82,0,0,0,18.72-3.46c.68-.24-.25-.48-.58-.37a63.77,63.77,0,0,1-18.21,3.39,7.34,7.34,0,0,0-.73-2.08,48.11,48.11,0,0,0,6-1.19,36.63,36.63,0,0,0,8.88-4c.23-.15-.69-.66-1-.48a35.58,35.58,0,0,1-9.67,4.16,43.35,43.35,0,0,1-4.63.87,7.09,7.09,0,0,0-.94-1.1A60.55,60.55,0,0,0-53.63,7.46c.32-.23-.74-.32-1-.14a59.53,59.53,0,0,1-12.33,7,3.15,3.15,0,0,0-.29-.22c0-.17-.1-.34-.16-.52A31.76,31.76,0,0,0-56.06,4.3c.18-.24-.87-.45-1.07-.18a31.23,31.23,0,0,1-10.52,8.76,10.38,10.38,0,0,0-.7-1.25c2.46-2.35,4.86-4.75,7.14-7.27.2-.21-.83-.48-1.06-.23-2.13,2.33-4.35,4.57-6.62,6.76-.22-.27-.45-.52-.69-.77a37.71,37.71,0,0,0,2.41-4.47c.13-.26-.92-.66-1.06-.35A40.62,40.62,0,0,1-70.4,9.37a7.56,7.56,0,0,0-2-1.2,2,2,0,0,0,0-.42,2.14,2.14,0,0,0-2.18-2.1,2.13,2.13,0,0,0-2.17,2.1,1.87,1.87,0,0,0,0,.42,8.24,8.24,0,0,0-3,2.16A38.13,38.13,0,0,1-82.3,5.59c-.14-.31-1.17-.46-1.06-.23A39,39,0,0,0-80.25,11c-.2.26-.38.53-.55.8-2.59-2.44-5.1-5-7.5-7.59-.2-.22-1.28-.2-1,.12,2.59,2.84,5.3,5.55,8.1,8.17a9.08,9.08,0,0,0-.46,1.09A32,32,0,0,1-93.39,4.18c-.2-.27-1.25-.16-1.09.06,3.51,4.63,7.58,7.41,12.66,9.93v0a6.65,6.65,0,0,0-1.47,1.57c-1.94-.33-3.9-.55-5.82-1a34.5,34.5,0,0,1-10.27-4.25c-.3-.18-1.28-.2-.67.17A37.4,37.4,0,0,0-91,14.74a65.12,65.12,0,0,0,7.44,1.44,7.17,7.17,0,0,0-.78,1.92,63.25,63.25,0,0,1-19.79-3.41c-.27-.09-1.33.16-.79.34a65.62,65.62,0,0,0,20.49,3.52,7.61,7.61,0,0,0-.11,1.18v4.75q-.14.89-.36,2.07c-.48,2.53-3.51,9.68-3.65,10.81a8,8,0,0,0,.84,3.5c.28.57-2.66,2.67-4.07,4.49s-3.93,3.79-2.38,4.92,4.35.14,5.89-1,.7-2.52,1.54-1.12a10.32,10.32,0,0,1,.85,7.3c-.85,2.38-5.48,10.66-5.9,13.75s-.6,8.08.24,10.61.18,1.87-1.92,6.36-7,8.69-7.16,15.3c-.09,3.09.56,10.24,3,14.59s6.31,10.8,10.52,15c3.06,3.06,7.15,6.56,9.43,8.52a19,19,0,0,0,.15,3.87A27.57,27.57,0,0,0-76,149.3a28.41,28.41,0,0,0,1.46,3.32l.53.91c.22.32.42.63.67.95a11.34,11.34,0,0,0,.89.94l.57.52a31.61,31.61,0,0,0,6,4c2,1.09,4,2.09,5.92,3.26a30.35,30.35,0,0,1,5.33,4c.39.4.82.79,1.2,1.21.24.25.35.4.54.61s.35.42.52.64a19.47,19.47,0,0,1,1.81,2.81,10.33,10.33,0,0,1,1.31,6,8.39,8.39,0,0,1-3,5.24,22.06,22.06,0,0,1-6.24,3.62,13.63,13.63,0,0,1-6.94.72c-4.9-.66-9.8-3-14.45-5.57s-9.19-5.47-13.94-7.93a35.63,35.63,0,0,0-7.56-3,13.51,13.51,0,0,0-4.35-.41,9.81,9.81,0,0,0-1,.11l-.93.13c-.65.1-1.26.21-1.88.33a26,26,0,0,0-7.1,2.37,15.15,15.15,0,0,0-5.55,4.81,15.65,15.65,0,0,0-2.46,6.2,24.16,24.16,0,0,0-.3,5.73c.07.85.14,1.67.2,2.47s.13,1.51.16,2.19a27.4,27.4,0,0,1-.1,3.81,22.57,22.57,0,0,1-.52,3,11.1,11.1,0,0,1-.77,2.07,5.19,5.19,0,0,1-1,1.43l.62.94a5.71,5.71,0,0,0,1.62-1.57,14.73,14.73,0,0,0,2.33-5.48,38.28,38.28,0,0,0,.68-8.93c.07-3.17.56-6.8,2.63-9.65s5.87-4.55,10.29-5.25c.55-.09,1.11-.18,1.66-.24l.87-.1c.31,0,.62-.07.81-.07a9.73,9.73,0,0,1,3,.38A31.53,31.53,0,0,1-96,178.65c4.41,2.39,8.9,5.33,13.72,8.06a74.56,74.56,0,0,0,7.58,3.82,34.38,34.38,0,0,0,8.54,2.53,20.91,20.91,0,0,0,4.69.16,17.66,17.66,0,0,0,2.39-.35,19.15,19.15,0,0,0,2.29-.68,32.85,32.85,0,0,0,4.12-1.89,21.55,21.55,0,0,0,3.82-2.61,15.43,15.43,0,0,0,3.18-3.7,12.56,12.56,0,0,0,1.71-4.75A16.34,16.34,0,0,0-45.62,170Z"/></clipPath><radialGradient id="radial-gradient" cx="36.58" cy="64.92" r="70.99" gradientUnits="userSpaceOnUse"><stop offset="0" stop-color="#565759"/><stop offset="0.58" stop-color="#363436"/><stop offset="1" stop-color="#231f20"/></radialGradient></defs><g class="cls-2"><g id="Layer_1" data-name="Layer 1"><g class="cls-3"><g class="cls-4"><path class="cls-5" d="M-60.32,133.37a9.19,9.19,0,0,0,4.79-.64C-49.71,139-42.36,144-35.39,148.66c11,7.47,22.9,13.79,36,16.81,6.31,1.46,9-8.26,2.68-9.73-10.35-2.39-19.74-7-28.68-12.59C-33.6,138-42.7,132.33-49.1,124.85c2.71-7.23,2.69-17.13,2-21.93-1-7.08-4-15.5-5.19-23.65a31,31,0,0,1,6.06-14.12,5.51,5.51,0,0,0-.59-7.55c2.17-4.69-4.08-10.25-8-5.81-6,6.74-11.23,14.66-11,23.16-.14,1-.27,2.06-.42,3.08-.59,3.88-2.66,7.31-2.88,11.21C-70,109.59-68.27,126-60.32,133.37Z"/></g></g><path class="cls-6" d="M71.42,10.93a56.64,56.64,0,0,1-16.23,3,6.17,6.17,0,0,0-.65-1.85A45,45,0,0,0,59.93,11,32.84,32.84,0,0,0,67.84,7.5c.21-.12-.61-.58-.87-.42a31.84,31.84,0,0,1-8.62,3.71c-1.36.35-2.74.56-4.13.78A6.19,6.19,0,0,0,52.74,10c0-.15-.09-.31-.14-.46A28.24,28.24,0,0,0,62.69,1.33c.16-.21-.78-.4-1-.16A27.77,27.77,0,0,1,52.36,9a8.93,8.93,0,0,0-.62-1.12c2.19-2.09,4.33-4.23,6.37-6.47.17-.19-.75-.43-1-.21-1.9,2.08-3.88,4.08-5.9,6-.19-.24-.4-.47-.61-.69a36.26,36.26,0,0,0,2.15-4c.1-.24-.83-.59-.95-.31a36.85,36.85,0,0,1-1.93,3.62,7.19,7.19,0,0,0-1.83-1.07,1.5,1.5,0,0,0,0-.37,1.94,1.94,0,0,0-3.88,0,2.45,2.45,0,0,0,0,.38,7.24,7.24,0,0,0-2.67,1.92,34.5,34.5,0,0,1-2.3-4.22c-.13-.28-1-.42-1-.21a34.35,34.35,0,0,0,2.77,5c-.18.24-.34.48-.49.72C38.35,5.82,36.11,3.58,34,1.23c-.18-.19-1.14-.17-.88.11,2.3,2.53,4.72,5,7.21,7.28a8.9,8.9,0,0,0-.41,1A28.59,28.59,0,0,1,29.44,1.23c-.19-.24-1.12-.15-1,.05a29.53,29.53,0,0,0,11.27,8.84v0a6.45,6.45,0,0,0-1.31,1.4c-1.73-.29-3.47-.49-5.18-.88a31.15,31.15,0,0,1-9.16-3.79c-.26-.16-1.14-.18-.59.15a33.7,33.7,0,0,0,8.08,3.62,59.49,59.49,0,0,0,6.62,1.28,6,6,0,0,0-.69,1.71,56.36,56.36,0,0,1-17.64-3c-.24-.08-1.18.14-.7.31A58.56,58.56,0,0,0,37.43,14a6,6,0,0,0-.1,1.05v1.23c-.08.53-.19,1.14-.33,1.85-.42,2.25-4.83,4.53-5.59,5.19-1.29,1.13-6.4,1.82-6.83,2.17-2.61,2.12-2.76,4.25-2.6,7,.08,1.52,2.5,3.8,4.9,5.47a7.87,7.87,0,0,0,5.53,1.11c3.47-.86,2-3.27,3-1.69a9.21,9.21,0,0,1,.75,6.5C35.38,46,32,53.62,30.88,56.16c-5.05,11.36-8,18-7.88,20.75s.5,9.12,2.63,13,5.62,9.62,9.37,13.37c2.67,2.67,6.22,5.71,8.27,7.48a5.74,5.74,0,0,1,.29,1.35,3.46,3.46,0,0,1-.66,2.32,7.34,7.34,0,0,1-2.51,2,8.47,8.47,0,0,1-3.23,1.11,11.49,11.49,0,0,1-3.59-.41A35.89,35.89,0,0,1,26,113.8c-2.52-1.36-5-2.83-7.69-4a13.34,13.34,0,0,0-4.44-1.2,6.93,6.93,0,0,0-1.28,0l-1,.16c-.69.13-1.35.27-2,.46a12.57,12.57,0,0,0-3.73,1.69,8.16,8.16,0,0,0-2.63,3,11.82,11.82,0,0,0-1,6.41c.08.9.16,1.74.18,2.46a13.08,13.08,0,0,1-.1,2,7.5,7.5,0,0,1-.75,2.69,2.91,2.91,0,0,1-.54.75l.35.52a3.31,3.31,0,0,0,.84-.85A8,8,0,0,0,3.44,125a14.91,14.91,0,0,0,.35-2.2c.07-.84.09-1.68.08-2.58A10,10,0,0,1,5.09,115a7.35,7.35,0,0,1,5.13-3.08c.57-.11,1.17-.2,1.77-.26l.94-.08a4.29,4.29,0,0,1,.7,0,10.64,10.64,0,0,1,3.3,1.18c2.3,1.19,4.64,2.81,7.13,4.36a39.62,39.62,0,0,0,8.28,4.18,14.19,14.19,0,0,0,5.11.76,12.88,12.88,0,0,0,5.07-1.48,11.83,11.83,0,0,0,4.19-3.28,8,8,0,0,0,1.38-2.63,8.08,8.08,0,0,0,.31-2.83c1.39-1.22,6.16-5.19,9.53-8.56,3.75-3.75,7.25-9.5,9.37-13.37s2.5-10.25,2.63-13-2.83-9.39-7.88-20.75C60.92,53.62,57.55,46,56.8,43.91a9.21,9.21,0,0,1,.75-6.5c1-1.58-.5.83,3,1.69A7.86,7.86,0,0,0,66.05,38c2.4-1.67,4.82-4,4.9-5.47.16-2.75,0-4.88-2.6-7-.43-.35-5.54-1-6.83-2.17-.76-.66-5.16-2.94-5.59-5.19-.31-1.58-.47-2.71-.55-3.36a.92.92,0,0,0-.11-.29c0-.06,0-.11,0-.17a57.89,57.89,0,0,0,16.67-3.08C72.54,11.05,71.71,10.83,71.42,10.93Z"/></g></g></svg>