# Alias OBJ Model File
# Exported from SketchUp, (c) 2000-2012 Trimble Navigation Limited
# File units = inches

mtllib Ladder.mtl

g Mesh1 Model

usemtl FrontColor
v 202 0 -0
vt -202 0
vn 0 -1 -0
v 0 0 -0
vt 0 0
v -0.3125 0 -13.0625
vt 0.3125 13.0625
v 7.125 0 -13.0625
vt -7.125 13.0625
v 14.2871 0 -13.0625
vt -14.2871 13.0625
v 24.5669 0 -13.0625
vt -24.5669 13.0625
v 31.729 0 -13.0625
vt -31.729 13.0625
v 42.4318 0 -13.0625
vt -42.4318 13.0625
v 49.5939 0 -13.0625
vt -49.5939 13.0625
v 59.8737 0 -13.0625
vt -59.8737 13.0625
v 67.0358 0 -13.0625
vt -67.0358 13.0625
v 78.3105 0 -13.0625
vt -78.3105 13.0625
v 85.4727 0 -13.0625
vt -85.4727 13.0625
v 95.7524 0 -13.0625
vt -95.7524 13.0625
v 102.915 0 -13.0625
vt -102.915 13.0625
v 113.617 0 -13.0625
vt -113.617 13.0625
v 120.779 0 -13.0625
vt -120.779 13.0625
v 131.059 0 -13.0625
vt -131.059 13.0625
v 138.221 0 -13.0625
vt -138.221 13.0625
v 148.992 0 -13.0625
vt -148.992 13.0625
v 156.155 0 -13.0625
vt -156.155 13.0625
v 166.434 0 -13.0625
vt -166.434 13.0625
v 173.596 0 -13.0625
vt -173.596 13.0625
v 184.299 0 -13.0625
vt -184.299 13.0625
v 191.461 0 -13.0625
vt -191.461 13.0625
v 202 0 -13.0625
vt -202 13.0625
f 1/1/1 2/2/1 3/3/1 4/4/1 5/5/1 6/6/1 7/7/1 8/8/1 9/9/1 10/10/1 11/11/1 12/12/1 13/13/1 14/14/1 15/15/1 16/16/1 17/17/1 18/18/1 19/19/1 20/20/1 21/21/1 22/22/1 23/23/1 24/24/1 25/25/1 26/26/1 

vn 0 0 1
vt 202 0
v 202 8.75 -0
vt 202 8.75
v 0 8.75 -0
vt 0 8.75
f 2/2/2 1/27/2 27/28/2 28/29/2 

vn 1 0 -0
vt 13.0625 0
v 202 8.75 -13.0625
vt 13.0625 8.75
f 1/2/3 26/30/3 29/31/3 27/29/3 

vn 0 0 -1
vt -191.461 0
v 191.461 8.75 -13.0625
vt -191.461 8.75
vt -202 8.75
f 26/1/4 25/32/4 30/33/4 29/34/4 

vt -36.9722 0
vn 0.965877 0 -0.259003
v 182.899 0 -44.9939
vt -3.91271 0
v 182.899 8.75 -44.9939
vt -3.91271 8.75
vt -36.9722 8.75
f 25/35/5 31/36/5 32/37/5 30/38/5 

vt -182.899 44.9939
v 175.961 0 -44.9939
vt -175.961 44.9939
f 31/39/1 25/25/1 24/24/1 33/40/1 

vt 184.299 0
vt 191.461 0
vt 191.461 8.75
v 184.299 8.75 -13.0625
vt 184.299 8.75
f 24/41/2 25/42/2 30/43/2 34/44/2 

vn 0 1 -0
vt 202 13.0625
vt 191.461 13.0625
vt 184.299 13.0625
v 173.596 8.75 -13.0625
vt 173.596 13.0625
v 166.434 8.75 -13.0625
vt 166.434 13.0625
v 156.155 8.75 -13.0625
vt 156.155 13.0625
v 148.992 8.75 -13.0625
vt 148.992 13.0625
v 138.221 8.75 -13.0625
vt 138.221 13.0625
v 131.059 8.75 -13.0625
vt 131.059 13.0625
v 120.779 8.75 -13.0625
vt 120.779 13.0625
v 113.617 8.75 -13.0625
vt 113.617 13.0625
v 102.915 8.75 -13.0625
vt 102.915 13.0625
v 95.7524 8.75 -13.0625
vt 95.7524 13.0625
v 85.4727 8.75 -13.0625
vt 85.4727 13.0625
v 78.3105 8.75 -13.0625
vt 78.3105 13.0625
v 67.0358 8.75 -13.0625
vt 67.0358 13.0625
v 59.8737 8.75 -13.0625
vt 59.8737 13.0625
v 49.5939 8.75 -13.0625
vt 49.5939 13.0625
v 42.4318 8.75 -13.0625
vt 42.4318 13.0625
v 31.729 8.75 -13.0625
vt 31.729 13.0625
v 24.5669 8.75 -13.0625
vt 24.5669 13.0625
v 14.2871 8.75 -13.0625
vt 14.2871 13.0625
v 7.125 8.75 -13.0625
vt 7.125 13.0625
v -0.3125 8.75 -13.0625
vt -0.3125 13.0625
f 28/2/6 27/27/6 29/45/6 30/46/6 34/47/6 35/48/6 36/49/6 37/50/6 38/51/6 39/52/6 40/53/6 41/54/6 42/55/6 43/56/6 44/57/6 45/58/6 46/59/6 47/60/6 48/61/6 49/62/6 50/63/6 51/64/6 52/65/6 53/66/6 54/67/6 55/68/6 

vt 182.899 44.9939
v 175.961 8.75 -44.9939
vt 175.961 44.9939
f 30/46/6 32/69/6 56/70/6 34/47/6 

v 5.72461 8.75 -44.9939
vt -5.72461 44.9939
v -1.21289 8.75 -44.9939
vt 1.21289 44.9939
v -1.21289 8.75 -58.0564
vt 1.21289 58.0564
v 202.975 8.75 -58.0564
vt -202.975 58.0564
v 202.975 8.75 -44.9939
vt -202.975 44.9939
v 165.034 8.75 -44.9939
vt -165.034 44.9939
v 158.096 8.75 -44.9939
vt -158.096 44.9939
v 147.592 8.75 -44.9939
vt -147.592 44.9939
v 140.655 8.75 -44.9939
vt -140.655 44.9939
v 129.659 8.75 -44.9939
vt -129.659 44.9939
v 122.721 8.75 -44.9939
vt -122.721 44.9939
v 112.217 8.75 -44.9939
vt -112.217 44.9939
v 105.279 8.75 -44.9939
vt -105.279 44.9939
v 94.352 8.75 -44.9939
vt -94.352 44.9939
v 87.4145 8.75 -44.9939
vt -87.4145 44.9939
v 76.9102 8.75 -44.9939
vt -76.9102 44.9939
v 69.9727 8.75 -44.9939
vt -69.9727 44.9939
v 58.4733 8.75 -44.9939
vt -58.4733 44.9939
v 51.5358 8.75 -44.9939
vt -51.5358 44.9939
v 41.0314 8.75 -44.9939
vt -41.0314 44.9939
v 34.0939 8.75 -44.9939
vt -34.0939 44.9939
v 23.1665 8.75 -44.9939
vt -23.1665 44.9939
v 16.229 8.75 -44.9939
vt -16.229 44.9939
f 57/71/1 58/72/1 59/73/1 60/74/1 61/75/1 32/39/1 56/40/1 62/76/1 63/77/1 64/78/1 65/79/1 66/80/1 67/81/1 68/82/1 69/83/1 70/84/1 71/85/1 72/86/1 73/87/1 74/88/1 75/89/1 76/90/1 77/91/1 78/92/1 79/93/1 

vt 5.72461 44.9939
vt -1.21289 44.9939
f 53/66/6 57/94/6 58/95/6 54/67/6 

vt 8.91636 0
v 5.72461 0 -44.9939
vt 41.9759 0
vt 41.9759 8.75
vt 8.91636 8.75
f 5/96/5 80/97/5 57/98/5 53/99/5 

v -1.21289 0 -44.9939
f 80/71/1 5/5/1 4/4/1 81/72/1 

vt -14.2871 0
vt -7.125 0
vt -7.125 8.75
vt -14.2871 8.75
f 5/100/4 4/101/4 54/102/4 53/103/4 

vt 0.3125 0
vt 0.3125 8.75
f 4/101/4 3/104/4 55/105/4 54/102/4 

vt -13.0662 0
vn -0.999714 0 0.0239166
vt -13.0662 8.75
f 3/106/7 2/2/7 28/29/7 55/107/7 

vt -43.8407 0
vn -0.967558 0 0.252647
vt -10.8386 0
vt -10.8386 8.75
vt -43.8407 8.75
f 81/108/8 4/109/8 54/110/8 58/111/8 

vt -5.72461 0
vt 1.21289 0
vt 1.21289 8.75
vt -5.72461 8.75
f 80/112/4 81/113/4 58/114/4 57/115/4 

vt 44.9939 0
v -1.21289 0 -58.0564
vt 58.0564 0
vt 58.0564 8.75
vt 44.9939 8.75
f 81/116/3 82/117/3 59/118/3 58/119/3 

vt -1.21289 0
v 202.975 0 -58.0564
vt 202.975 0
vt 202.975 8.75
vt -1.21289 8.75
f 82/120/2 83/121/2 60/122/2 59/123/2 

vt -58.0564 0
vn -1 0 -0
v 202.975 0 -44.9939
vt -44.9939 0
vt -44.9939 8.75
vt -58.0564 8.75
f 83/124/9 84/125/9 61/126/9 60/127/9 

vt -202.975 0
vt -182.899 0
vt -182.899 8.75
vt -202.975 8.75
f 84/128/4 31/129/4 32/130/4 61/131/4 

v 16.229 0 -44.9939
vt -16.229 0
vt -16.229 8.75
f 85/132/4 80/112/4 57/115/4 79/133/4 

vt -39.434 0
vt -6.43197 0
vt -6.43197 8.75
vt -39.434 8.75
f 85/134/8 6/135/8 52/136/8 79/137/8 

v 23.1665 0 -44.9939
f 86/92/1 7/7/1 6/6/1 85/93/1 

vt 4.39887 0
vt 37.4584 0
vt 37.4584 8.75
vt 4.39887 8.75
f 7/138/5 86/139/5 78/140/5 51/141/5 

v 34.0939 0 -44.9939
vt -34.0939 0
vt -23.1665 0
vt -23.1665 8.75
vt -34.0939 8.75
f 87/142/4 86/143/4 78/144/4 77/145/4 

f 86/143/4 85/132/4 79/133/4 78/144/4 

vt 23.1665 44.9939
vt 16.229 44.9939
f 51/64/6 78/146/6 79/147/6 52/65/6 

vt -31.729 0
vt -24.5669 0
vt -24.5669 8.75
vt -31.729 8.75
f 7/148/4 6/149/4 52/150/4 51/151/4 

f 6/149/4 5/100/4 53/103/4 52/150/4 

vt -42.4318 0
vt -42.4318 8.75
f 8/152/4 7/148/4 51/151/4 50/153/4 

vt 42.4318 0
vt 49.5939 0
vt 49.5939 8.75
vt 42.4318 8.75
f 8/154/2 9/155/2 49/156/2 50/157/2 

v 41.0314 0 -44.9939
f 88/90/1 9/9/1 8/8/1 87/91/1 

vt -0.228196 0
vt 32.8313 0
vt 32.8313 8.75
vt -0.228196 8.75
f 9/158/5 88/159/5 76/160/5 49/161/5 

vt -41.0314 0
vt -41.0314 8.75
f 88/162/4 87/142/4 77/145/4 76/163/4 

vt -34.9205 0
vt -1.91844 0
vt -1.91844 8.75
vt -34.9205 8.75
f 87/164/8 8/165/8 50/166/8 77/167/8 

vt 41.0314 44.9939
vt 34.0939 44.9939
f 49/62/6 76/168/6 77/169/6 50/63/6 

v 51.5358 0 -44.9939
vt -51.5358 0
vt -51.5358 8.75
f 89/170/4 88/162/4 76/163/4 75/171/4 

vt -30.5138 0
vt 2.48821 0
vt 2.48821 8.75
vt -30.5138 8.75
f 89/172/8 10/173/8 48/174/8 75/175/8 

v 58.4733 0 -44.9939
f 90/88/1 11/11/1 10/10/1 89/89/1 

vt -4.74569 0
vt 28.3138 0
vt 28.3138 8.75
vt -4.74569 8.75
f 11/176/5 90/177/5 74/178/5 47/179/5 

vt -58.4733 0
vt -58.4733 8.75
f 90/180/4 89/170/4 75/171/4 74/181/4 

vt 58.4733 44.9939
vt 51.5358 44.9939
f 47/60/6 74/182/6 75/183/6 48/61/6 

vt 59.8737 0
vt 67.0358 0
vt 67.0358 8.75
vt 59.8737 8.75
f 10/184/2 11/185/2 47/186/2 48/187/2 

vt -78.3105 0
vt -67.0358 0
vt -67.0358 8.75
vt -78.3105 8.75
f 12/188/4 11/189/4 47/190/4 46/191/4 

vt 78.3105 0
vt 85.4727 0
vt 85.4727 8.75
vt 78.3105 8.75
f 12/192/2 13/193/2 45/194/2 46/195/2 

v 76.9102 0 -44.9939
v 69.9727 0 -44.9939
f 91/86/1 13/13/1 12/12/1 92/87/1 

vt -9.52088 0
vt 23.5386 0
vt 23.5386 8.75
vt -9.52088 8.75
f 13/196/5 91/197/5 72/198/5 45/199/5 

vt -76.9102 0
vt -69.9727 0
vt -69.9727 8.75
vt -76.9102 8.75
f 91/200/4 92/201/4 73/202/4 72/203/4 

vt -25.8558 0
vt 7.14623 0
vt 7.14623 8.75
vt -25.8558 8.75
f 92/204/8 12/205/8 46/206/8 73/207/8 

vt 76.9102 44.9939
vt 69.9727 44.9939
f 45/58/6 72/208/6 73/209/6 46/59/6 

f 92/201/4 90/180/4 74/181/4 73/202/4 

v 87.4145 0 -44.9939
vt -87.4145 0
vt -87.4145 8.75
f 93/210/4 91/200/4 72/203/4 71/211/4 

vt -21.4492 0
vt 11.5529 0
vt 11.5529 8.75
vt -21.4492 8.75
f 93/212/8 14/213/8 44/214/8 71/215/8 

v 94.352 0 -44.9939
f 94/84/1 15/15/1 14/14/1 93/85/1 

vt -14.0384 0
vt 19.0211 0
vt 19.0211 8.75
vt -14.0384 8.75
f 15/216/5 94/217/5 70/218/5 43/219/5 

v 105.279 0 -44.9939
vt -105.279 0
vt -94.352 0
vt -94.352 8.75
vt -105.279 8.75
f 95/220/4 94/221/4 70/222/4 69/223/4 

vt -16.9356 0
vt 16.0664 0
vt 16.0664 8.75
vt -16.9356 8.75
f 95/224/8 16/225/8 42/226/8 69/227/8 

v 112.217 0 -44.9939
f 96/82/1 17/17/1 16/16/1 95/83/1 

vt -18.6654 0
vt 14.3941 0
vt 14.3941 8.75
vt -18.6654 8.75
f 17/228/5 96/229/5 68/230/5 41/231/5 

v 122.721 0 -44.9939
vt -122.721 0
vt -112.217 0
vt -112.217 8.75
vt -122.721 8.75
f 97/232/4 96/233/4 68/234/4 67/235/4 

vt -12.529 0
vt 20.4731 0
vt 20.4731 8.75
vt -12.529 8.75
f 97/236/8 18/237/8 40/238/8 67/239/8 

v 129.659 0 -44.9939
f 98/80/1 19/19/1 18/18/1 97/81/1 

vt -23.1829 0
vt 9.87659 0
vt 9.87659 8.75
vt -23.1829 8.75
f 19/240/5 98/241/5 66/242/5 39/243/5 

v 140.655 0 -44.9939
vt -140.655 0
vt -129.659 0
vt -129.659 8.75
vt -140.655 8.75
f 99/244/4 98/245/4 66/246/4 65/247/4 

vt -7.99822 0
vt 25.0038 0
vt 25.0038 8.75
vt -7.99822 8.75
f 99/248/8 20/249/8 38/250/8 65/251/8 

v 147.592 0 -44.9939
f 100/78/1 21/21/1 20/20/1 99/79/1 

vt -27.8277 0
vt 5.23185 0
vt 5.23185 8.75
vt -27.8277 8.75
f 21/252/5 100/253/5 64/254/5 37/255/5 

v 158.096 0 -44.9939
vt -158.096 0
vt -147.592 0
vt -147.592 8.75
vt -158.096 8.75
f 101/256/4 100/257/4 64/258/4 63/259/4 

vt -3.59158 0
vt 29.4105 0
vt 29.4105 8.75
vt -3.59158 8.75
f 101/260/8 22/261/8 36/262/8 63/263/8 

v 165.034 0 -44.9939
f 102/76/1 23/23/1 22/22/1 101/77/1 

vt -32.3452 0
vt 0.71436 0
vt 0.71436 8.75
vt -32.3452 8.75
f 23/264/5 102/265/5 62/266/5 35/267/5 

vt -175.961 0
vt -165.034 0
vt -165.034 8.75
vt -175.961 8.75
f 33/268/4 102/269/4 62/270/4 56/271/4 

vt 0.921955 0
vt 33.924 0
vt 33.924 8.75
vt 0.921955 8.75
f 33/272/8 24/273/8 34/274/8 56/275/8 

vt -184.299 0
vt -173.596 0
vt -173.596 8.75
vt -184.299 8.75
f 24/276/4 23/277/4 35/278/4 34/279/4 

vt 166.434 0
vt 173.596 0
vt 173.596 8.75
vt 166.434 8.75
f 22/280/2 23/281/2 35/282/2 36/283/2 

vt 165.034 44.9939
vt 158.096 44.9939
f 35/48/6 62/284/6 63/285/6 36/49/6 

vt -166.434 0
vt -156.155 0
vt -156.155 8.75
vt -166.434 8.75
f 22/286/4 21/287/4 37/288/4 36/289/4 

vt 148.992 0
vt 156.155 0
vt 156.155 8.75
vt 148.992 8.75
f 20/290/2 21/291/2 37/292/2 38/293/2 

vt 147.592 44.9939
vt 140.655 44.9939
f 37/50/6 64/294/6 65/295/6 38/51/6 

vt -148.992 0
vt -138.221 0
vt -138.221 8.75
vt -148.992 8.75
f 20/296/4 19/297/4 39/298/4 38/299/4 

vt 131.059 0
vt 138.221 0
vt 138.221 8.75
vt 131.059 8.75
f 18/300/2 19/301/2 39/302/2 40/303/2 

vt 129.659 44.9939
vt 122.721 44.9939
f 39/52/6 66/304/6 67/305/6 40/53/6 

vt -131.059 0
vt -120.779 0
vt -120.779 8.75
vt -131.059 8.75
f 18/306/4 17/307/4 41/308/4 40/309/4 

vt -113.617 0
vt -113.617 8.75
f 17/307/4 16/310/4 42/311/4 41/308/4 

vt -102.915 0
vt -102.915 8.75
f 16/310/4 15/312/4 43/313/4 42/311/4 

vt -95.7524 0
vt -95.7524 8.75
f 15/312/4 14/314/4 44/315/4 43/313/4 

vt -85.4727 0
vt -85.4727 8.75
f 14/314/4 13/316/4 45/317/4 44/315/4 

vt 94.352 44.9939
vt 87.4145 44.9939
f 43/56/6 70/318/6 71/319/6 44/57/6 

vt 112.217 44.9939
vt 105.279 44.9939
f 41/54/6 68/320/6 69/321/6 42/55/6 

vt -59.8737 0
vt -49.5939 0
vt -49.5939 8.75
vt -59.8737 8.75
f 10/322/4 9/323/4 49/324/4 48/325/4 

