# Alias OBJ Model File
# Exported from SketchUp, (c) 2000-2012 Trimble Navigation Limited
# File units = inches

mtllib Ladder2.mtl

g Mesh1 Model

usemtl FrontColor
v 202 0 -0
vt -202 0
vn 0 -1 -0
v 0 0 -0
vt 0 0
v -0.3125 0 -13.0625
vt 0.3125 13.0625
v 7.125 0 -13.0625
vt -7.125 13.0625
v 14.2871 0 -13.0625
vt -14.2871 13.0625
v 24.5669 0 -13.0625
vt -24.5669 13.0625
v 31.729 0 -13.0625
vt -31.729 13.0625
v 42.4318 0 -13.0625
vt -42.4318 13.0625
v 49.5939 0 -13.0625
vt -49.5939 13.0625
v 59.8737 0 -13.0625
vt -59.8737 13.0625
v 67.0358 0 -13.0625
vt -67.0358 13.0625
v 78.3105 0 -13.0625
vt -78.3105 13.0625
v 85.4727 0 -13.0625
vt -85.4727 13.0625
v 95.7524 0 -13.0625
vt -95.7524 13.0625
v 102.915 0 -13.0625
vt -102.915 13.0625
v 113.617 0 -13.0625
vt -113.617 13.0625
v 120.779 0 -13.0625
vt -120.779 13.0625
v 131.059 0 -13.0625
vt -131.059 13.0625
v 138.221 0 -13.0625
vt -138.221 13.0625
v 148.992 0 -13.0625
vt -148.992 13.0625
v 156.155 0 -13.0625
vt -156.155 13.0625
v 166.434 0 -13.0625
vt -166.434 13.0625
v 173.596 0 -13.0625
vt -173.596 13.0625
v 184.299 0 -13.0625
vt -184.299 13.0625
v 191.461 0 -13.0625
vt -191.461 13.0625
v 202 0 -13.0625
vt -202 13.0625
f 1/1/1 2/2/1 3/3/1 4/4/1 5/5/1 6/6/1 7/7/1 8/8/1 9/9/1 10/10/1 11/11/1 12/12/1 13/13/1 14/14/1 15/15/1 16/16/1 17/17/1 18/18/1 19/19/1 20/20/1 21/21/1 22/22/1 23/23/1 24/24/1 25/25/1 26/26/1 

vn 0 0 1
vt 202 0
v 207.063 8.75 -0
vt 207.063 8.75
v 0 8.75 -0
vt 0 8.75
f 2/2/2 1/27/2 27/28/2 28/29/2 

vt 0 101.16
vn 0.865567 -0.500793 -0
vt 13.0625 101.16
v 207.063 8.75 -13.0625
vt 13.0625 111.269
vt 0 111.269
f 1/30/3 26/31/3 29/32/3 27/33/3 

vn 0 0 -1
vt -191.461 0
v 201.102 8.75 -13.0625
vt -201.102 8.75
vt -207.063 8.75
f 26/1/4 25/34/4 30/35/4 29/36/4 

vt 184.299 0
vt 191.461 0
vt 201.102 8.75
v 193.94 8.75 -13.0625
vt 193.94 8.75
f 24/37/2 25/38/2 30/39/2 31/40/2 

v 182.899 0 -44.9939
vt -182.899 44.9939
v 175.961 0 -44.9939
vt -175.961 44.9939
f 32/41/1 25/25/1 24/24/1 33/42/1 

vt -36.9722 137.233
vn 0.661409 -0.728754 -0.177359
vt -3.91271 137.233
v 192.54 8.75 -44.9939
vt -6.40974 150.011
vt -39.4693 150.011
f 25/43/5 32/44/5 34/45/5 30/46/5 

v 202.975 0 -44.9939
vt -202.975 0
vt -182.899 0
vt -192.54 8.75
v 207.912 8.75 -44.9939
vt -207.912 8.75
f 35/47/4 32/48/4 34/49/4 36/50/4 

v 5.72461 8.75 -44.9939
vt -5.72461 44.9939
v -1.21289 8.75 -44.9939
vt 1.21289 44.9939
v -1.21289 8.75 -58.0564
vt 1.21289 58.0564
v 207.912 8.75 -58.0564
vt -207.912 58.0564
vt -207.912 44.9939
vt -192.54 44.9939
v 185.602 8.75 -44.9939
vt -185.602 44.9939
v 171.971 8.75 -44.9939
vt -171.971 44.9939
v 165.034 8.75 -44.9939
vt -165.034 44.9939
v 152.53 8.75 -44.9939
vt -152.53 44.9939
v 145.592 8.75 -44.9939
vt -145.592 44.9939
v 134.284 8.75 -44.9939
vt -134.284 44.9939
v 127.346 8.75 -44.9939
vt -127.346 44.9939
v 112.217 8.75 -44.9939
vt -112.217 44.9939
v 105.279 8.75 -44.9939
vt -105.279 44.9939
v 94.352 8.75 -44.9939
vt -94.352 44.9939
v 87.4145 8.75 -44.9939
vt -87.4145 44.9939
v 76.9102 8.75 -44.9939
vt -76.9102 44.9939
v 69.9727 8.75 -44.9939
vt -69.9727 44.9939
v 58.4733 8.75 -44.9939
vt -58.4733 44.9939
v 51.5358 8.75 -44.9939
vt -51.5358 44.9939
v 41.0314 8.75 -44.9939
vt -41.0314 44.9939
v 34.0939 8.75 -44.9939
vt -34.0939 44.9939
v 23.1665 8.75 -44.9939
vt -23.1665 44.9939
v 16.229 8.75 -44.9939
vt -16.229 44.9939
f 37/51/1 38/52/1 39/53/1 40/54/1 36/55/1 34/56/1 41/57/1 42/58/1 43/59/1 44/60/1 45/61/1 46/62/1 47/63/1 48/64/1 49/65/1 50/66/1 51/67/1 52/68/1 53/69/1 54/70/1 55/71/1 56/72/1 57/73/1 58/74/1 59/75/1 

v 5.72461 0 -44.9939
vt -5.72461 0
v -1.21289 0 -44.9939
vt 1.21289 0
vt 1.21289 8.75
vt -5.72461 8.75
f 60/76/4 61/77/4 38/78/4 37/79/4 

f 60/51/1 5/5/1 4/4/1 61/52/1 

vt 8.91636 0
vn 0.965877 0 -0.259003
vt 41.9759 0
vt 41.9759 8.75
v 14.2871 8.75 -13.0625
vt 8.91636 8.75
f 5/80/6 60/81/6 37/82/6 62/83/6 

v 16.229 0 -44.9939
vt -16.229 0
vt -16.229 8.75
f 63/84/4 60/76/4 37/79/4 59/85/4 

v 23.1665 0 -44.9939
vt -23.1665 0
vt -23.1665 8.75
f 64/86/4 63/84/4 59/85/4 58/87/4 

f 64/74/1 7/7/1 6/6/1 63/75/1 

vt 4.39887 0
vt 37.4584 0
vt 37.4584 8.75
v 31.729 8.75 -13.0625
vt 4.39887 8.75
f 7/88/6 64/89/6 58/90/6 65/91/6 

v 34.0939 0 -44.9939
vt -34.0939 0
vt -34.0939 8.75
f 66/92/4 64/86/4 58/87/4 57/93/4 

v 41.0314 0 -44.9939
vt -41.0314 0
vt -41.0314 8.75
f 67/94/4 66/92/4 57/93/4 56/95/4 

f 67/72/1 9/9/1 8/8/1 66/73/1 

vt -0.228196 0
vt 32.8313 0
vt 32.8313 8.75
v 49.5939 8.75 -13.0625
vt -0.228196 8.75
f 9/96/6 67/97/6 56/98/6 68/99/6 

v 51.5358 0 -44.9939
vt -51.5358 0
vt -51.5358 8.75
f 69/100/4 67/94/4 56/95/4 55/101/4 

vt -30.5138 0
vn -0.967558 0 0.252647
vt 2.48821 0
v 59.8737 8.75 -13.0625
vt 2.48821 8.75
vt -30.5138 8.75
f 69/102/7 10/103/7 70/104/7 55/105/7 

v 58.4733 0 -44.9939
f 71/70/1 11/11/1 10/10/1 69/71/1 

vt -4.74569 0
vt 28.3138 0
vt 28.3138 8.75
v 67.0358 8.75 -13.0625
vt -4.74569 8.75
f 11/106/6 71/107/6 54/108/6 72/109/6 

vt -58.4733 0
vt -58.4733 8.75
f 71/110/4 69/100/4 55/101/4 54/111/4 

vt 67.0358 13.0625
vn 0 1 -0
vt 58.4733 44.9939
vt 51.5358 44.9939
vt 59.8737 13.0625
f 72/112/8 54/113/8 55/114/8 70/115/8 

vt 207.063 0
vt 207.063 13.0625
vt 201.102 13.0625
vt 193.94 13.0625
v 180.534 8.75 -13.0625
vt 180.534 13.0625
v 173.372 8.75 -13.0625
vt 173.372 13.0625
v 161.092 8.75 -13.0625
vt 161.092 13.0625
v 153.93 8.75 -13.0625
vt 153.93 13.0625
v 142.846 8.75 -13.0625
vt 142.846 13.0625
v 135.684 8.75 -13.0625
vt 135.684 13.0625
v 120.779 8.75 -13.0625
vt 120.779 13.0625
v 113.617 8.75 -13.0625
vt 113.617 13.0625
v 102.915 8.75 -13.0625
vt 102.915 13.0625
v 95.7524 8.75 -13.0625
vt 95.7524 13.0625
v 85.4727 8.75 -13.0625
vt 85.4727 13.0625
v 78.3105 8.75 -13.0625
vt 78.3105 13.0625
vt 49.5939 13.0625
v 42.4318 8.75 -13.0625
vt 42.4318 13.0625
vt 31.729 13.0625
v 24.5669 8.75 -13.0625
vt 24.5669 13.0625
vt 14.2871 13.0625
v 7.125 8.75 -13.0625
vt 7.125 13.0625
v -0.3125 8.75 -13.0625
vt -0.3125 13.0625
f 28/2/8 27/116/8 29/117/8 30/118/8 31/119/8 73/120/8 74/121/8 75/122/8 76/123/8 77/124/8 78/125/8 79/126/8 80/127/8 81/128/8 82/129/8 83/130/8 84/131/8 72/112/8 70/115/8 68/132/8 85/133/8 65/134/8 86/135/8 62/136/8 87/137/8 88/138/8 

vt 192.54 44.9939
vt 185.602 44.9939
f 30/118/8 34/139/8 41/140/8 31/119/8 

vt 0.921955 132.465
vn -0.661948 0.729348 0.172847
vt 33.924 132.465
vt 36.3598 145.254
vt 3.35771 145.254
f 33/141/9 24/142/9 31/143/9 41/144/9 

vt -184.299 0
vt -173.596 0
vt -180.534 8.75
vt -193.94 8.75
f 24/145/4 23/146/4 73/147/4 31/148/4 

vt 166.434 0
vt 173.596 0
vt 180.534 8.75
vt 173.372 8.75
f 22/149/2 23/150/2 73/151/2 74/152/2 

v 165.034 0 -44.9939
v 158.096 0 -44.9939
vt -158.096 44.9939
f 89/59/1 23/23/1 22/22/1 90/153/1 

vt -32.3452 104.002
vn 0.766846 -0.607999 -0.205632
vt 0.71436 104.002
vt -1.08247 115.023
vt -34.142 115.023
f 23/154/10 89/155/10 42/156/10 73/157/10 

vt -175.961 0
vt -165.034 0
vt -171.971 8.75
vt -185.602 8.75
f 33/158/4 89/159/4 42/160/4 41/161/4 

vt 171.971 44.9939
vt 165.034 44.9939
f 73/120/8 42/162/8 43/163/8 74/121/8 

vt -3.59158 100.025
vn -0.767687 0.608666 0.200457
vt 29.4105 100.025
vt 31.1632 111.053
vt -1.83884 111.053
f 90/164/11 22/165/11 74/166/11 43/167/11 

vt -166.434 0
vt -156.155 0
vt -161.092 8.75
vt -173.372 8.75
f 22/168/4 21/169/4 75/170/4 74/171/4 

vt 148.992 0
vt 156.155 0
vt 161.092 8.75
vt 153.93 8.75
f 20/172/2 21/173/2 75/174/2 76/175/2 

v 147.592 0 -44.9939
vt -147.592 44.9939
v 140.655 0 -44.9939
vt -140.655 44.9939
f 91/176/1 21/21/1 20/20/1 92/177/1 

vt -27.8277 73.7991
vn 0.84809 -0.478565 -0.227418
vt 5.23185 73.7991
vt 3.95302 83.7644
vt -29.1065 83.7644
f 21/178/12 91/179/12 44/180/12 75/181/12 

vt -158.096 0
vt -147.592 0
vt -152.53 8.75
vt -165.034 8.75
f 90/182/4 91/183/4 44/184/4 43/185/4 

vt 152.53 44.9939
vt 145.592 44.9939
f 75/122/8 44/186/8 45/187/8 76/123/8 

vt -7.99822 70.6634
vn -0.849228 0.479207 0.221749
vt 25.0038 70.6634
vt 26.2513 80.6326
vt -6.75078 80.6326
f 92/188/13 20/189/13 76/190/13 45/191/13 

vt -148.992 0
vt -138.221 0
vt -142.846 8.75
vt -153.93 8.75
f 20/192/4 19/193/4 77/194/4 76/195/4 

vt 131.059 0
vt 138.221 0
vt 142.846 8.75
vt 135.684 8.75
f 18/196/2 19/197/2 77/198/2 78/199/2 

v 129.659 0 -44.9939
vt -129.659 44.9939
v 122.721 0 -44.9939
vt -122.721 44.9939
f 93/200/1 19/19/1 18/18/1 94/201/1 

vt -23.1829 62.2435
vn 0.860251 -0.454704 -0.230679
vt 9.87659 62.2435
vt 8.6787 72.0679
vt -24.3808 72.0679
f 19/202/14 93/203/14 46/204/14 77/205/14 

vt -140.655 0
vt -129.659 0
vt -134.284 8.75
vt -145.592 8.75
f 92/206/4 93/207/4 46/208/4 45/209/4 

vt 134.284 44.9939
vt 127.346 44.9939
f 77/124/8 46/210/8 47/211/8 78/125/8 

vt -12.529 59.2421
vn -0.861438 0.455332 0.224938
vt 20.4731 59.2421
vt 21.6416 69.0701
vt -11.3605 69.0701
f 94/212/15 18/213/15 78/214/15 47/215/15 

vt -131.059 0
vt -120.779 0
vt -120.779 8.75
vt -135.684 8.75
f 18/216/4 17/217/4 79/218/4 78/219/4 

vt -113.617 0
vt -113.617 8.75
f 17/217/4 16/220/4 80/221/4 79/218/4 

v 112.217 0 -44.9939
v 105.279 0 -44.9939
f 95/64/1 17/17/1 16/16/1 96/65/1 

vt -18.6654 0
vt 14.3941 0
vt 14.3941 8.75
vt -18.6654 8.75
f 17/222/6 95/223/6 48/224/6 79/225/6 

vt -122.721 0
vt -112.217 0
vt -112.217 8.75
vt -127.346 8.75
f 94/226/4 95/227/4 48/228/4 47/229/4 

vt 112.217 44.9939
vt 105.279 44.9939
f 79/126/8 48/230/8 49/231/8 80/127/8 

vt -16.9356 0
vt 16.0664 0
vt 16.0664 8.75
vt -16.9356 8.75
f 96/232/7 16/233/7 80/234/7 49/235/7 

vt -102.915 0
vt -102.915 8.75
f 16/220/4 15/236/4 81/237/4 80/221/4 

vt -95.7524 0
vt -95.7524 8.75
f 15/236/4 14/238/4 82/239/4 81/237/4 

v 94.352 0 -44.9939
v 87.4145 0 -44.9939
f 97/66/1 15/15/1 14/14/1 98/67/1 

vt -14.0384 0
vt 19.0211 0
vt 19.0211 8.75
vt -14.0384 8.75
f 15/240/6 97/241/6 50/242/6 81/243/6 

vt -105.279 0
vt -94.352 0
vt -94.352 8.75
vt -105.279 8.75
f 96/244/4 97/245/4 50/246/4 49/247/4 

vt 94.352 44.9939
vt 87.4145 44.9939
f 81/128/8 50/248/8 51/249/8 82/129/8 

vt -21.4492 0
vt 11.5529 0
vt 11.5529 8.75
vt -21.4492 8.75
f 98/250/7 14/251/7 82/252/7 51/253/7 

vt -85.4727 0
vt -85.4727 8.75
f 14/238/4 13/254/4 83/255/4 82/239/4 

vt 78.3105 0
vt 85.4727 0
vt 85.4727 8.75
vt 78.3105 8.75
f 12/256/2 13/257/2 83/258/2 84/259/2 

v 76.9102 0 -44.9939
v 69.9727 0 -44.9939
f 99/68/1 13/13/1 12/12/1 100/69/1 

vt -9.52088 0
vt 23.5386 0
vt 23.5386 8.75
vt -9.52088 8.75
f 13/260/6 99/261/6 52/262/6 83/263/6 

vt -76.9102 0
vt -69.9727 0
vt -69.9727 8.75
vt -76.9102 8.75
f 99/264/4 100/265/4 53/266/4 52/267/4 

vt -25.8558 0
vt 7.14623 0
vt 7.14623 8.75
vt -25.8558 8.75
f 100/268/7 12/269/7 84/270/7 53/271/7 

vt -78.3105 0
vt -67.0358 0
vt -67.0358 8.75
vt -78.3105 8.75
f 12/272/4 11/273/4 72/274/4 84/275/4 

vt 59.8737 0
vt 67.0358 0
vt 67.0358 8.75
vt 59.8737 8.75
f 10/276/2 11/277/2 72/278/2 70/279/2 

vt -59.8737 0
vt -49.5939 0
vt -49.5939 8.75
vt -59.8737 8.75
f 10/280/4 9/281/4 68/282/4 70/283/4 

vt 42.4318 0
vt 49.5939 0
vt 49.5939 8.75
vt 42.4318 8.75
f 8/284/2 9/285/2 68/286/2 85/287/2 

vt 41.0314 44.9939
vt 34.0939 44.9939
f 68/132/8 56/288/8 57/289/8 85/133/8 

vt -34.9205 0
vt -1.91844 0
vt -1.91844 8.75
vt -34.9205 8.75
f 66/290/7 8/291/7 85/292/7 57/293/7 

vt -42.4318 0
vt -31.729 0
vt -31.729 8.75
vt -42.4318 8.75
f 8/294/4 7/295/4 65/296/4 85/297/4 

vt -24.5669 0
vt -24.5669 8.75
f 7/295/4 6/298/4 86/299/4 65/296/4 

vt -14.2871 0
vt -14.2871 8.75
f 6/298/4 5/300/4 62/301/4 86/299/4 

vt -7.125 0
vt -7.125 8.75
f 5/300/4 4/302/4 87/303/4 62/301/4 

vt 0.3125 0
vt 0.3125 8.75
f 4/302/4 3/304/4 88/305/4 87/303/4 

vt -13.0662 0
vn -0.999714 0 0.0239166
vt -13.0662 8.75
f 3/306/16 2/2/16 28/29/16 88/307/16 

vt -43.8407 0
vt -10.8386 0
vt -10.8386 8.75
vt -43.8407 8.75
f 61/308/7 4/309/7 87/310/7 38/311/7 

vt 5.72461 44.9939
vt -1.21289 44.9939
f 62/136/8 37/312/8 38/313/8 87/137/8 

vt 44.9939 0
vn 1 0 -0
v -1.21289 0 -58.0564
vt 58.0564 0
vt 58.0564 8.75
vt 44.9939 8.75
f 61/314/17 101/315/17 39/316/17 38/317/17 

vt -1.21289 0
v 202.975 0 -58.0564
vt 202.975 0
vt 207.912 8.75
vt -1.21289 8.75
f 101/318/2 102/319/2 40/320/2 39/321/2 

vt -58.0564 99.7503
vn -0.87091 0.491442 -0
vt -44.9939 99.7503
vt -44.9939 109.797
vt -58.0564 109.797
f 102/322/18 35/323/18 36/324/18 40/325/18 

vt -39.434 0
vt -6.43197 0
vt -6.43197 8.75
vt -39.434 8.75
f 63/326/7 6/327/7 86/328/7 59/329/7 

vt 23.1665 44.9939
vt 16.229 44.9939
f 65/134/8 58/330/8 59/331/8 86/135/8 

vt 76.9102 44.9939
vt 69.9727 44.9939
f 83/130/8 52/332/8 53/333/8 84/131/8 

f 100/265/4 71/110/4 54/111/4 53/266/4 

vt -87.4145 0
vt -87.4145 8.75
f 98/334/4 99/264/4 52/267/4 51/335/4 

